<?xml version="1.0" encoding="utf-8"?>
<svg xmlns="http://www.w3.org/2000/svg">
<symbol id="bookmarks" viewBox="0 0 212.045 212.045">
<path d="M167.871,0H44.84C34.82,0,26.022,8.243,26.022,18v182c0,3.266,0.909,5.988,2.374,8.091c1.752,2.514,4.573,3.955,7.598,3.954
	c2.86,0,5.905-1.273,8.717-3.675l55.044-46.735c1.7-1.452,4.142-2.284,6.681-2.284c2.538,0,4.975,0.832,6.68,2.288l54.86,46.724
	c2.822,2.409,5.657,3.683,8.512,3.683c4.828,0,9.534-3.724,9.534-12.045V18C186.022,8.243,177.891,0,167.871,0z"/>
<g>
</g>
<g>
</g>
<g>
</g>
<g>
</g>
<g>
</g>
<g>
</g>
<g>
</g>
<g>
</g>
<g>
</g>
<g>
</g>
<g>
</g>
<g>
</g>
<g>
</g>
<g>
</g>
<g>
</g>

</symbol>
<symbol id="car-rental" viewBox="0 0 32 32"><g id="Car_Rental" data-name="Car Rental"><path d="M26,19h1a1,1,0,0,0,0-2H24.618l-1.171-2.342A2.983,2.983,0,0,0,20.764,13H11.236a2.983,2.983,0,0,0-2.683,1.658L7.382,17H5a1,1,0,0,0,0,2H6L4.6,20.866a3.02,3.02,0,0,0-.6,1.8V25a1.993,1.993,0,0,0,1,1.722V28a2,2,0,0,0,2,2H9a2,2,0,0,0,2-2V27H21v1a2,2,0,0,0,2,2h2a2,2,0,0,0,2-2V26.722A1.993,1.993,0,0,0,28,25V22.667a3.015,3.015,0,0,0-.6-1.8Zm-2,3a1.5,1.5,0,1,1-1.5,1.5A1.5,1.5,0,0,1,24,22ZM8.8,18.6a1.087,1.087,0,0,0,.095-.153l1.447-2.894A1,1,0,0,1,11.236,15h9.528a1,1,0,0,1,.894.553l1.447,2.894a1.087,1.087,0,0,0,.095.153l.033.043-.284.189A.994.994,0,0,1,22.4,19H9.605a.994.994,0,0,1-.554-.168l-.284-.189ZM8,22a1.5,1.5,0,1,1-1.5,1.5A1.5,1.5,0,0,1,8,22Z"/><path d="M26.414,5.586l-1-1A2,2,0,0,0,24,4H13.98A5.026,5.026,0,0,0,7.854,2.462a4.782,4.782,0,0,0-2.483,2.6,5.063,5.063,0,0,0,.712,5.042,4.978,4.978,0,0,0,7.9-.107h1.31a.9.9,0,0,0,.818-.451,1,1,0,0,1,1.786,0,.9.9,0,0,0,.818.451h.578a.9.9,0,0,0,.818-.451,1,1,0,0,1,1.786,0,.9.9,0,0,0,.818.451H24a2,2,0,0,0,1.414-.586l1-1A2,2,0,0,0,26.414,5.586ZM10,9a2,2,0,1,1,2-2A2,2,0,0,1,10,9Z"/></g>
</symbol>
<symbol id="home" viewBox="0 0 512 512"><path d="m498.195312 222.695312c-.011718-.011718-.023437-.023437-.035156-.035156l-208.855468-208.847656c-8.902344-8.90625-20.738282-13.8125-33.328126-13.8125-12.589843 0-24.425781 4.902344-33.332031 13.808594l-208.746093 208.742187c-.070313.070313-.140626.144531-.210938.214844-18.28125 18.386719-18.25 48.21875.089844 66.558594 8.378906 8.382812 19.445312 13.238281 31.277344 13.746093.480468.046876.964843.070313 1.453124.070313h8.324219v153.699219c0 30.414062 24.746094 55.160156 55.167969 55.160156h81.710938c8.28125 0 15-6.714844 15-15v-120.5c0-13.878906 11.289062-25.167969 25.167968-25.167969h48.195313c13.878906 0 25.167969 11.289063 25.167969 25.167969v120.5c0 8.285156 6.714843 15 15 15h81.710937c30.421875 0 55.167969-24.746094 55.167969-55.160156v-153.699219h7.71875c12.585937 0 24.421875-4.902344 33.332031-13.808594 18.359375-18.371093 18.367187-48.253906.023437-66.636719zm0 0"/>
</symbol>
<symbol id="map" viewBox="0 0 512 512">
<g>
	<g>
		<path d="M400,0c-61.76,0-112,50.24-112,112c0,57.472,89.856,159.264,100.096,170.688c3.04,3.36,7.36,5.312,11.904,5.312
			s8.864-1.952,11.904-5.312C422.144,271.264,512,169.472,512,112C512,50.24,461.76,0,400,0z M400,160c-26.496,0-48-21.504-48-48
			c0-26.496,21.504-48,48-48c26.496,0,48,21.504,48,48C448,138.496,426.496,160,400,160z"/>
	</g>
</g>
<g>
	<g>
		<path d="M10.048,187.968C4,190.4,0,196.288,0,202.848V496c0,5.312,2.656,10.272,7.04,13.248C9.728,511.04,12.832,512,16,512
			c2.016,0,4.032-0.384,5.952-1.152L160,455.616V128L10.048,187.968z"/>
	</g>
</g>
<g>
	<g>
		<path d="M435.712,304.064C426.624,314.176,413.6,320,400,320c-13.6,0-26.624-5.824-35.712-15.936
			c-3.264-3.616-7.456-8.384-12.288-14.048V512l149.952-59.968c6.08-2.4,10.048-8.32,10.048-14.848V201.952
			C485.792,246.336,450.752,287.296,435.712,304.064z"/>
	</g>
</g>
<g>
	<g>
		<path d="M266.08,157.632L192,128v327.616l128,51.2v-256.96C299.552,222.304,278.208,189.12,266.08,157.632z"/>
	</g>
</g>
<g>
</g>
<g>
</g>
<g>
</g>
<g>
</g>
<g>
</g>
<g>
</g>
<g>
</g>
<g>
</g>
<g>
</g>
<g>
</g>
<g>
</g>
<g>
</g>
<g>
</g>
<g>
</g>
<g>
</g>

</symbol>
<symbol id="messages" viewBox="0 0 404 404"><g><path d="m325.62 382.649c3.464 0 6.882 1.318 9.482 3.829 16.621 16.05 40.866 21.394 62.419 14.705-13.871-28.897-15.793-62.003-5.044-92.656 13.34-38.138 16.683-76.364 1.501-114.702-13.338-33.679-39.077-61.66-71.652-77.616 2.004 10.684 3.014 21.57 3.014 32.571.001 46.695-17.955 90.613-50.557 123.665-32.606 33.056-76.314 51.643-123.071 52.338-8.687.136-17.335-.375-25.885-1.502 25.697 45.043 74.161 74.379 127.417 75.169 23.297.36 45.666-4.521 66.498-14.469 1.876-.897 3.885-1.332 5.878-1.332z"/><path d="m152.097.03c-82.946-1.647-151.897 65.455-152.097 148.383-.049 20.261 3.906 39.905 11.756 58.389.114.269.22.541.316.817 10.749 30.653 8.828 63.758-5.044 92.656 21.555 6.686 45.797 1.345 62.419-14.706 4.095-3.956 10.222-4.952 15.36-2.496 20.829 9.948 43.201 14.844 66.497 14.47 82.297-1.222 146.762-66.567 146.761-148.764.001-80.403-65.481-147.131-145.968-148.749zm-82.56 170.969c-11.917 0-21.578-9.645-21.578-21.542s9.661-21.542 21.578-21.542 21.578 9.645 21.578 21.542c-.001 11.897-9.661 21.542-21.578 21.542zm79.496 0c-11.917 0-21.578-9.645-21.578-21.542s9.661-21.542 21.578-21.542 21.578 9.645 21.578 21.542-9.661 21.542-21.578 21.542zm79.497 0c-11.917 0-21.578-9.645-21.578-21.542s9.661-21.542 21.578-21.542 21.578 9.645 21.578 21.542-9.661 21.542-21.578 21.542z"/></g>
</symbol>
<symbol id="pin" viewBox="0 0 64 64"><g id="Pin"><path d="m32 0a24.0319 24.0319 0 0 0 -24 24c0 17.23 22.36 38.81 23.31 39.72a.99.99 0 0 0 1.38 0c.95-.91 23.31-22.49 23.31-39.72a24.0319 24.0319 0 0 0 -24-24zm0 35a11 11 0 1 1 11-11 11.0066 11.0066 0 0 1 -11 11z"/></g>
</symbol>
<symbol id="plane" viewBox="0 0 409.601 409.601">
<g>
	<g>
		<path d="M409.283,108.107c-3.267-18.565-31.017-29.199-61.932-23.731l-221.302,39.019L44.001,51.208L1.987,58.607l28.831,81.567
			L0,145.611l2.964,16.814c39.552,27.72,86.62,36.721,130.698,28.948l29.45-5.202l-15.032,71.972l50.417-8.899l99.067-86.769
			l61.635-10.865C390.113,146.143,412.564,126.672,409.283,108.107z"/>
	</g>
</g>
<g>
	<g>
		<rect y="324.258" width="409.6" height="34.135"/>
	</g>
</g>
<g>
</g>
<g>
</g>
<g>
</g>
<g>
</g>
<g>
</g>
<g>
</g>
<g>
</g>
<g>
</g>
<g>
</g>
<g>
</g>
<g>
</g>
<g>
</g>
<g>
</g>
<g>
</g>
<g>
</g>

</symbol>
<symbol id="search" viewBox="0 0 56.966 56.966">
<path d="M55.146,51.887L41.588,37.786c3.486-4.144,5.396-9.358,5.396-14.786c0-12.682-10.318-23-23-23s-23,10.318-23,23
	s10.318,23,23,23c4.761,0,9.298-1.436,13.177-4.162l13.661,14.208c0.571,0.593,1.339,0.92,2.162,0.92
	c0.779,0,1.518-0.297,2.079-0.837C56.255,54.982,56.293,53.08,55.146,51.887z M23.984,6c9.374,0,17,7.626,17,17s-7.626,17-17,17
	s-17-7.626-17-17S14.61,6,23.984,6z"/>
<g>
</g>
<g>
</g>
<g>
</g>
<g>
</g>
<g>
</g>
<g>
</g>
<g>
</g>
<g>
</g>
<g>
</g>
<g>
</g>
<g>
</g>
<g>
</g>
<g>
</g>
<g>
</g>
<g>
</g>

</symbol>
<symbol id="star" viewBox="0 -10 511.99143 511"><path d="m510.652344 185.882812c-3.371094-10.367187-12.566406-17.707031-23.402344-18.6875l-147.796875-13.417968-58.410156-136.75c-4.3125-10.046875-14.125-16.53125-25.046875-16.53125s-20.738282 6.484375-25.023438 16.53125l-58.410156 136.75-147.820312 13.417968c-10.835938 1-20.011719 8.339844-23.402344 18.6875-3.371094 10.367188-.257813 21.738282 7.9375 28.925782l111.722656 97.964844-32.941406 145.085937c-2.410156 10.667969 1.730468 21.699219 10.582031 28.097656 4.757813 3.457031 10.347656 5.183594 15.957031 5.183594 4.820313 0 9.644532-1.28125 13.953125-3.859375l127.445313-76.203125 127.421875 76.203125c9.347656 5.585938 21.101562 5.074219 29.933593-1.324219 8.851563-6.398437 12.992188-17.429687 10.582032-28.097656l-32.941406-145.085937 111.722656-97.964844c8.191406-7.1875 11.308594-18.535156 7.9375-28.925782zm-252.203125 223.722657"/>
</symbol></svg>