<?xml version="1.0" encoding="UTF-8"?>
<svg xmlns="http://www.w3.org/2000/svg" viewBox="0 0 32 32" width="512" height="512">
  <g id="Car_Rental" data-name="Car Rental">
    <path d="M26,19h1a1,1,0,0,0,0-2H24.618l-1.171-2.342A2.983,2.983,0,0,0,20.764,13H11.236a2.983,2.983,0,0,0-2.683,1.658L7.382,17H5a1,1,0,0,0,0,2H6L4.6,20.866a3.02,3.02,0,0,0-.6,1.8V25a1.993,1.993,0,0,0,1,1.722V28a2,2,0,0,0,2,2H9a2,2,0,0,0,2-2V27H21v1a2,2,0,0,0,2,2h2a2,2,0,0,0,2-2V26.722A1.993,1.993,0,0,0,28,25V22.667a3.015,3.015,0,0,0-.6-1.8Zm-2,3a1.5,1.5,0,1,1-1.5,1.5A1.5,1.5,0,0,1,24,22ZM8.8,18.6a1.087,1.087,0,0,0,.095-.153l1.447-2.894A1,1,0,0,1,11.236,15h9.528a1,1,0,0,1,.894.553l1.447,2.894a1.087,1.087,0,0,0,.095.153l.033.043-.284.189A.994.994,0,0,1,22.4,19H9.605a.994.994,0,0,1-.554-.168l-.284-.189ZM8,22a1.5,1.5,0,1,1-1.5,1.5A1.5,1.5,0,0,1,8,22Z"/>
    <path d="M26.414,5.586l-1-1A2,2,0,0,0,24,4H13.98A5.026,5.026,0,0,0,7.854,2.462a4.782,4.782,0,0,0-2.483,2.6,5.063,5.063,0,0,0,.712,5.042,4.978,4.978,0,0,0,7.9-.107h1.31a.9.9,0,0,0,.818-.451,1,1,0,0,1,1.786,0,.9.9,0,0,0,.818.451h.578a.9.9,0,0,0,.818-.451,1,1,0,0,1,1.786,0,.9.9,0,0,0,.818.451H24a2,2,0,0,0,1.414-.586l1-1A2,2,0,0,0,26.414,5.586ZM10,9a2,2,0,1,1,2-2A2,2,0,0,1,10,9Z"/>
  </g>
</svg>
