<svg width="0" height="0" class="hidden">
  <symbol xmlns="http://www.w3.org/2000/svg" viewBox="0 0 512 512" id="home">
    <path d="m498.195312 222.695312c-.011718-.011718-.023437-.023437-.035156-.035156l-208.855468-208.847656c-8.902344-8.90625-20.738282-13.8125-33.328126-13.8125-12.589843 0-24.425781 4.902344-33.332031 13.808594l-208.746093 208.742187c-.070313.070313-.140626.144531-.210938.214844-18.28125 18.386719-18.25 48.21875.089844 66.558594 8.378906 8.382812 19.445312 13.238281 31.277344 13.746093.480468.046876.964843.070313 1.453124.070313h8.324219v153.699219c0 30.414062 24.746094 55.160156 55.167969 55.160156h81.710938c8.28125 0 15-6.714844 15-15v-120.5c0-13.878906 11.289062-25.167969 25.167968-25.167969h48.195313c13.878906 0 25.167969 11.289063 25.167969 25.167969v120.5c0 8.285156 6.714843 15 15 15h81.710937c30.421875 0 55.167969-24.746094 55.167969-55.160156v-153.699219h7.71875c12.585937 0 24.421875-4.902344 33.332031-13.808594 18.359375-18.371093 18.367187-48.253906.023437-66.636719zm0 0"/>
  </symbol>
  <symbol version="1.1" id="map" xmlns="http://www.w3.org/2000/svg" xmlns:xlink="http://www.w3.org/1999/xlink" x="0" y="0" xml:space="preserve" viewBox="0 0 512 512">
    <g>
      <g>
        <path d="M400,0c-61.76,0-112,50.24-112,112c0,57.472,89.856,159.264,100.096,170.688c3.04,3.36,7.36,5.312,11.904,5.312
			s8.864-1.952,11.904-5.312C422.144,271.264,512,169.472,512,112C512,50.24,461.76,0,400,0z M400,160c-26.496,0-48-21.504-48-48
			c0-26.496,21.504-48,48-48c26.496,0,48,21.504,48,48C448,138.496,426.496,160,400,160z"/>
      </g>
    </g>
    <g>
      <g>
        <path d="M10.048,187.968C4,190.4,0,196.288,0,202.848V496c0,5.312,2.656,10.272,7.04,13.248C9.728,511.04,12.832,512,16,512
			c2.016,0,4.032-0.384,5.952-1.152L160,455.616V128L10.048,187.968z"/>
      </g>
    </g>
    <g>
      <g>
        <path d="M435.712,304.064C426.624,314.176,413.6,320,400,320c-13.6,0-26.624-5.824-35.712-15.936
			c-3.264-3.616-7.456-8.384-12.288-14.048V512l149.952-59.968c6.08-2.4,10.048-8.32,10.048-14.848V201.952
			C485.792,246.336,450.752,287.296,435.712,304.064z"/>
      </g>
    </g>
    <g>
      <g>
        <path d="M266.08,157.632L192,128v327.616l128,51.2v-256.96C299.552,222.304,278.208,189.12,266.08,157.632z"/>
      </g>
    </g>
    <g/>
    <g/>
    <g/>
    <g/>
    <g/>
    <g/>
    <g/>
    <g/>
    <g/>
    <g/>
    <g/>
    <g/>
    <g/>
    <g/>
    <g/>
  </symbol>
  <symbol id="plane" enable-background="new 0 0 60 60" xmlns="http://www.w3.org/2000/svg" viewBox="0 0 60 60">
    <path d="m9.19 35.33c.85 1.16 2.17 1.81 3.56 1.81.34 0 .7-.04 1.04-.12 3.5-.85 10.02-2.47 16.34-4.22l-3.03 7.15c-.14.31-.1.66.08.94.19.28.5.45.84.45 2.51 0 4.89-1.11 6.5-3.05 2.02-2.41 4.56-5.78 5.64-8.48.64-.22 1.25-.43 1.82-.63 6.17-2.22 9.89-3.7 11.89-5.18.94-.71 1.34-1.89 1.03-3.01-.32-1.12-1.28-1.91-2.44-2.01l-3.3-.29c-1.19-.1-2.4.08-3.5.52l-12.44 4.95c-3.43-1.07-9.04-1.78-12.15-2.11-1.91-.21-3.77.47-5.1 1.85-.24.24-.34.59-.26.92s.32.6.64.72l7.14 2.5-8.13 3.23-6.11-3.77c-.25-.16-.56-.19-.84-.09l-2.73.92c-.3.1-.54.34-.63.65-.1.3-.04.63.15.89z"/>
  </symbol>
  <symbol xmlns="http://www.w3.org/2000/svg" viewBox="0 0 32 32" id="car-rental">
    <g id="Car_Rental">
      <path d="M26,19h1a1,1,0,0,0,0-2H24.618l-1.171-2.342A2.983,2.983,0,0,0,20.764,13H11.236a2.983,2.983,0,0,0-2.683,1.658L7.382,17H5a1,1,0,0,0,0,2H6L4.6,20.866a3.02,3.02,0,0,0-.6,1.8V25a1.993,1.993,0,0,0,1,1.722V28a2,2,0,0,0,2,2H9a2,2,0,0,0,2-2V27H21v1a2,2,0,0,0,2,2h2a2,2,0,0,0,2-2V26.722A1.993,1.993,0,0,0,28,25V22.667a3.015,3.015,0,0,0-.6-1.8Zm-2,3a1.5,1.5,0,1,1-1.5,1.5A1.5,1.5,0,0,1,24,22ZM8.8,18.6a1.087,1.087,0,0,0,.095-.153l1.447-2.894A1,1,0,0,1,11.236,15h9.528a1,1,0,0,1,.894.553l1.447,2.894a1.087,1.087,0,0,0,.095.153l.033.043-.284.189A.994.994,0,0,1,22.4,19H9.605a.994.994,0,0,1-.554-.168l-.284-.189ZM8,22a1.5,1.5,0,1,1-1.5,1.5A1.5,1.5,0,0,1,8,22Z"/>
      <path d="M26.414,5.586l-1-1A2,2,0,0,0,24,4H13.98A5.026,5.026,0,0,0,7.854,2.462a4.782,4.782,0,0,0-2.483,2.6,5.063,5.063,0,0,0,.712,5.042,4.978,4.978,0,0,0,7.9-.107h1.31a.9.9,0,0,0,.818-.451,1,1,0,0,1,1.786,0,.9.9,0,0,0,.818.451h.578a.9.9,0,0,0,.818-.451,1,1,0,0,1,1.786,0,.9.9,0,0,0,.818.451H24a2,2,0,0,0,1.414-.586l1-1A2,2,0,0,0,26.414,5.586ZM10,9a2,2,0,1,1,2-2A2,2,0,0,1,10,9Z"/>
    </g>
  </symbol>
</svg>
